<?xml version="1.0" encoding="UTF-8" standalone="no"?>
<svg
   viewBox="0 0 102 102"
   version="1.2"
   id="svg209"
   sodipodi:docname="elevenways logo whitebg-clipped.svg"
   inkscape:version="1.2.2 (b0a8486541, 2022-12-01)"
   inkscape:export-filename="elevenways logo whitebg.png"
   inkscape:export-xdpi="1814.17"
   inkscape:export-ydpi="1814.17"
   xmlns:inkscape="http://www.inkscape.org/namespaces/inkscape"
   xmlns:sodipodi="http://sodipodi.sourceforge.net/DTD/sodipodi-0.dtd"
   xmlns="http://www.w3.org/2000/svg"
   xmlns:svg="http://www.w3.org/2000/svg"
   xmlns:rdf="http://www.w3.org/1999/02/22-rdf-syntax-ns#"
   xmlns:cc="http://creativecommons.org/ns#"
   xmlns:dc="http://purl.org/dc/elements/1.1/">
  <sodipodi:namedview
     id="namedview211"
     pagecolor="#ffffff"
     bordercolor="#666666"
     borderopacity="1.0"
     inkscape:showpageshadow="2"
     inkscape:pageopacity="0.0"
     inkscape:pagecheckerboard="0"
     inkscape:deskcolor="#d1d1d1"
     showgrid="false"
     inkscape:zoom="16"
     inkscape:cx="73.84375"
     inkscape:cy="56.53125"
     inkscape:window-width="3784"
     inkscape:window-height="2094"
     inkscape:window-x="0"
     inkscape:window-y="0"
     inkscape:window-maximized="1"
     inkscape:current-layer="g356" />
  <title
     id="title204">Eleven Ways</title>
  <defs
     id="defs362">
    <inkscape:path-effect
       effect="powerclip"
       id="path-effect587"
       is_visible="true"
       lpeversion="1"
       inverse="true"
       flatten="false"
       hide_clip="false"
       message="Use fill-rule evenodd on &lt;b&gt;fill and stroke&lt;/b&gt; dialog if no flatten result after convert clip to paths." />
    <clipPath
       clipPathUnits="userSpaceOnUse"
       id="clipPath583">
      <path
         style="display:none;fill:#ff0000;stroke:#000000;stroke-width:1px;stroke-linecap:butt;stroke-linejoin:miter;stroke-opacity:1"
         d="M 101.479,0.65966797 34.097656,-0.19995117 1.6000977,8.815918 -4.2194824,61.872314 14.351318,94.388184 44.585449,103.63599 79.123047,106.177 109.15845,62.758545 100.94287,38.476562 100.23022,38.70874 85.435547,68.475098 55.362305,86.037598 19.994629,78.526123 10.217041,48.857422 23.515625,26.882324 l 53.577148,0.801514 15.388184,5.200195 3.541992,-1.619385 4.199951,-1.489746 z"
         id="path585" />
      <path
         id="lpe_path-effect587"
         style="fill:#ff0000;stroke:#000000;stroke-width:1px;stroke-linecap:butt;stroke-linejoin:miter;stroke-opacity:1"
         class="powerclip"
         d="M -4.7299995,-4.7449989 H 106.847 V 106.795 H -4.7299995 Z M 101.479,0.65966797 34.097656,-0.19995117 1.6000977,8.815918 -4.2194824,61.872314 14.351318,94.388184 44.585449,103.63599 79.123047,106.177 109.15845,62.758545 100.94287,38.476562 100.23022,38.70874 85.435547,68.475098 55.362305,86.037598 19.994629,78.526123 10.217041,48.857422 23.515625,26.882324 l 53.577148,0.801514 15.388184,5.200195 3.541992,-1.619385 4.199951,-1.489746 z" />
    </clipPath>
  </defs>
  <g
     fill-rule="evenodd"
     id="g356">
    <path
       style="fill:#ffffff;stroke-width:0.992982"
       id="path364"
       clip-path="url(#clipPath583)"
       inkscape:path-effect="#path-effect587"
       sodipodi:type="arc"
       sodipodi:cx="51.058502"
       sodipodi:cy="51.025002"
       sodipodi:rx="50.788502"
       sodipodi:ry="50.77"
       d="M 101.847,51.025002 A 50.788502,50.77 0 0 1 51.058502,101.795 50.788502,50.77 0 0 1 0.27000046,51.025002 50.788502,50.77 0 0 1 51.058502,0.25500107 50.788502,50.77 0 0 1 101.847,51.025002 Z" />
    <path
       id="b"
       d="m 51.058723,0.24037915 c 20.836,0 38.742,12.54399985 46.578,30.49199985 -8.6572,6.558 -14.589,12.947 -22.286,23.8 v -19.566 c 0,-1.6904 -1.0876,-3.1892 -2.6956,-3.7132 -1.608,-0.5236 -3.3696,0.048 -4.3648,1.4144 -2.6732,3.6704 -5.346,7.3408 -8.0188,11.011 l -8.0184,11.011 v -19.723 c 0,-1.8236 -1.2624,-3.4044 -3.0416,-3.8076 -1.7784,-0.404 -3.5992,0.4772 -4.386,2.1224 -2.1024,4.396 -4.6616,7.1808 -9.4828,10.825 l 4.5504,6.3472 c 1.7412,-1.3144 3.2392,-2.5404 4.5504,-3.7464 v 19.978 c 0,1.69 1.0876,3.1888 2.6956,3.7132 1.608,0.5232 3.3696,-0.0484 4.3652,-1.4148 l 4.0092,-5.5052 12.028,-16.517 v 19.742 c 0,1.678 1.0728,3.1688 2.664,3.702 1.5916,0.5336 3.3452,-0.01 4.3568,-1.3492 0,0 2.494,-3.3004 5.562,-7.7292 7.2844,-10.514 12.705,-16.757 20.189997,-22.763 1.01,3.9916 1.5456,8.1716 1.5456,12.477 0,28.056 -22.743997,50.800001 -50.799997,50.800001 -28.056,0 -50.8000005,-22.744001 -50.8000005,-50.800001 0,-28.056 22.7440005,-50.79999985 50.8000005,-50.79999985 z m -26.955,32.96199985 c -2.3936,4.8176 -4.7888,7.3676 -9.4452,10.897 l 4.5,6.3756 c 1.7492,-1.322 3.2344,-2.5312 4.5344,-3.7304 v 19.984 c 0,2.1596 1.7396,3.912 3.8828,3.912 2.1424,0 3.8828,-1.7524 3.8828,-3.912 v -31.776 c 0,-1.8136 -1.238,-3.3896 -2.9904,-3.8072 -1.7528,-0.4168 -3.5588,0.4348 -4.3644,2.0568 z"
       fill="#009066"
       fill-opacity="1" />
  </g>
  <metadata
     id="metadata438">
    <rdf:RDF>
      <cc:Work
         rdf:about="">
        <dc:title>Eleven Ways</dc:title>
      </cc:Work>
    </rdf:RDF>
  </metadata>
</svg>
